REM MD5 65e55e672da6fb0a5b43d9eb902db375
FILE "Tomb Raider & Blam! Machinehead (France).bin" BINARY
  TRACK 01 MODE2/2352
    INDEX 01 00:00:00
  TRACK 02 AUDIO
    INDEX 00 00:47:48
    INDEX 01 00:49:48
  TRACK 03 AUDIO
    INDEX 00 02:47:59
    INDEX 01 02:49:59
  TRACK 04 AUDIO
    INDEX 00 06:42:26
    INDEX 01 06:44:26
REM LEADOUT 10:01:26
